<?xml version="1.0" encoding="iso-8859-1"?>
<!-- Uploaded to: SVG Repo, www.svgrepo.com, Generator: SVG Repo Mixer Tools -->
<svg fill="#000000" height="800px" width="800px" version="1.1" id="Layer_1" xmlns="http://www.w3.org/2000/svg" xmlns:xlink="http://www.w3.org/1999/xlink" 
	 viewBox="0 0 512 512" xml:space="preserve">
<g>
	<g>
		<path d="M498.15,181.741c15.397-24.295,18.164-54.233,7.256-81.067c-10.902-26.846-33.768-46.374-61.746-53.046l-3.944-9.709
			c-1.848-4.546-7.032-6.734-11.577-4.886l-79.351,32.24c-4.546,1.847-6.735,7.031-4.888,11.577l5.223,12.858l-29.731,14.598
			c-4.405,2.164-6.223,7.488-4.061,11.894c2.164,4.405,7.487,6.222,11.894,4.061l28.599-14.043l34.361,84.574l4.154,10.227
			l-82.285,26.861c-8.513-15.798-25.212-26.561-44.381-26.561c-27.781,0-50.381,22.6-50.381,50.381c0,2.34,0.179,4.653,0.495,6.935
			l-33.287,10.867l-9.177-22.578l-17.637-43.417l146.726-72.045c4.405-2.164,6.223-7.488,4.061-11.894
			c-2.164-4.405-7.49-6.224-11.894-4.061l-145.598,71.49l-1.288-3.172c-0.887-2.184-2.606-3.926-4.776-4.841
			c-2.172-0.917-4.619-0.934-6.801-0.047L89.467,198.7c-4.546,1.847-6.736,7.031-4.889,11.577l8.943,22.02l-45.455,18.477
			c-7.564-8.338-19.831-11.522-30.865-7.043C6.753,247.995,0,258.039,0,269.32c0,3.561,0.681,7.048,2.027,10.37l17.786,43.785
			c4.357,10.712,14.71,17.217,25.613,17.216c3.454,0,6.965-0.653,10.355-2.032c10.99-4.456,17.572-15.31,17.19-26.565l45.472-18.471
			l8.942,22.016c0.888,2.184,2.606,3.925,4.776,4.843c1.105,0.467,2.281,0.7,3.456,0.7c1.135,0,2.273-0.218,3.345-0.654
			l48.639-19.764c4.546-1.847,6.735-7.031,4.888-11.577l-1.29-3.175l32.089-10.475c2.82,5.249,6.571,9.999,11.126,14L189.23,468.561
			c-0.671,2.656-0.078,5.474,1.606,7.635c1.684,2.161,4.27,3.425,7.011,3.425h39.101c4.07,0,7.621-2.766,8.616-6.712l22.107-87.602
			l22.107,87.602c0.995,3.947,4.546,6.712,8.616,6.712h39.101c2.741,0,5.327-1.264,7.011-3.425c1.684-2.161,2.276-4.979,1.606-7.635
			l-21.771-86.258c-1.201-4.758-6.032-7.641-10.791-6.442c-4.758,1.201-7.642,6.032-6.442,10.791l18.979,75.197h-20.771
			l-29.029-115.033c-0.995-3.947-4.545-6.712-8.616-6.712s-7.621,2.766-8.616,6.712l-29.029,115.033h-20.771l41.097-162.831
			c5.505,2.014,11.349,3.063,17.319,3.063s11.814-1.049,17.319-3.063l16.072,63.68c1.017,4.029,4.635,6.715,8.61,6.715
			c0.719,0,1.451-0.089,2.181-0.273c4.758-1.201,7.642-6.032,6.442-10.791l-17.368-68.813c10.818-9.505,17.124-23.235,17.124-37.835
			c0-2.35-0.174-4.658-0.487-6.923l83.478-27.251l5.224,12.861c0.887,2.184,2.606,3.925,4.777,4.843
			c1.104,0.467,2.28,0.699,3.456,0.699c1.136,0,2.273-0.218,3.346-0.654l79.351-32.252c4.544-1.847,6.732-7.029,4.888-11.574
			L498.15,181.741z M49.095,322.193c-5.023,2.044-10.773-0.386-12.816-5.409L18.498,273.01c-0.481-1.186-0.724-2.427-0.724-3.689
			c0-4.025,2.41-7.609,6.127-9.125c5.025-2.039,10.771,0.385,12.808,5.405c0,0.001,17.829,43.868,17.829,43.868
			C56.516,314.466,54.079,320.171,49.095,322.193z M67.84,294.996l-11.535-28.384l43.916-17.851l11.535,28.395L67.84,294.996z
			 M140.509,300.717l-36.121-88.891l32.185-13.074l36.109,88.893L140.509,300.717z M285.918,278.726
			c-0.031,0.021-0.057,0.045-0.088,0.066c-5.372,3.608-11.647,5.518-18.157,5.518c-6.511-0.001-12.787-1.911-18.159-5.52
			c-0.03-0.02-0.056-0.044-0.085-0.064c-8.993-6.083-14.363-16.185-14.363-27.025c0-17.98,14.627-32.608,32.608-32.608
			c17.98,0,32.608,14.627,32.608,32.608C300.281,262.539,294.911,272.642,285.918,278.726z M419.393,215.465l-4.993-12.291
			c-0.001-0.004-0.002-0.007-0.004-0.011l-4.871-11.987L363.71,78.397l62.888-25.551l53.312,131.212l2.372,5.847L419.393,215.465z
			 M489.33,160.029l-36.847-90.685c16.401,7.428,29.487,20.855,36.457,38.023C495.914,124.523,495.901,143.266,489.33,160.029z"/>
	</g>
</g>
</svg>